<?xml version="1.0" encoding="UTF-8"?><!DOCTYPE svg PUBLIC "-//W3C//DTD SVG 1.1//EN" "http://www.w3.org/Graphics/SVG/1.1/DTD/svg11.dtd"><svg xmlns="http://www.w3.org/2000/svg" version="1.1" width="1026px" height="835px" style="shape-rendering:geometricPrecision; text-rendering:geometricPrecision; image-rendering:optimizeQuality; fill-rule:evenodd; clip-rule:evenodd" xmlns:xlink="http://www.w3.org/1999/xlink">
<path d="M 540.5 42.5 C 579.501 42.3333 618.501 42.5 657.5 43.0" fill="transparent" stroke="#000000"/>
<path d="M 657.5 43.0 C 682.544 44.0418 707.544 45.7085 732.5 48.0" fill="transparent" stroke="#ff6622"/>
<path d="M 732.5 48.0 C 768.061 51.3584 796.894 66.8584 819.0 94.5" fill="transparent" stroke="#ffda21"/>
<path d="M 819.0 94.5 C 824.914 102.66 830.581 110.993 836.0 119.5" fill="transparent" stroke="#33dd00"/>
<path d="M 836.0 119.5 C 850.195 147.224 863.862 175.224 877.0 203.5" fill="transparent" stroke="#1133cc"/>
<path d="M 877.0 203.5 C 880.635 209.965 884.468 216.298 888.5 222.5" fill="transparent" stroke="#220066"/>
<path d="M 888.5 222.5 C 879.52 223.05 870.52 223.217 861.5 223.0" fill="transparent" stroke="#d10000"/>
<path d="M 861.5 223.0 C 857.898 224.273 856.732 226.773 858.0 230.5" fill="transparent" stroke="#ff6622"/>
<path d="M 858.0 230.5 C 872.102 233.119 886.268 235.619 900.5 238.0" fill="transparent" stroke="#ffda21"/>
<path d="M 900.5 238.0 C 928.038 246.861 949.871 263.361 966.0 287.5" fill="transparent" stroke="#33dd00"/>
<path d="M 966.0 287.5 C 989.866 335.133 982.699 377.3 944.5 414.0" fill="transparent" stroke="#1133cc"/>
<path d="M 944.5 414.0 C 930.83 425.334 916.33 435.501 901.0 444.5" fill="transparent" stroke="#220066"/>
<path d="M 901.0 444.5 C 888.972 469.246 879.306 494.912 872.0 521.5" fill="transparent" stroke="#d10000"/>
<path d="M 872.0 521.5 C 866.675 534.479 859.342 546.145 850.0 556.5" fill="transparent" stroke="#ff6622"/>
<path d="M 850.0 556.5 C 821.402 586.776 788.569 611.276 751.5 630.0" fill="transparent" stroke="#ffda21"/>
<path d="M 751.5 630.0 C 700.621 654.606 649.621 678.939 598.5 703.0" fill="transparent" stroke="#33dd00"/>
<path d="M 598.5 703.0 C 576.654 716.426 554.32 729.093 531.5 741.0" fill="transparent" stroke="#1133cc"/>
<path d="M 531.5 741.0 C 525.459 743.76 519.126 745.427 512.5 746.0" fill="transparent" stroke="#220066"/>
<path d="M 512.5 746.0 C 496.472 746.154 480.472 746.821 464.5 748.0" fill="transparent" stroke="#d10000"/>
<path d="M 464.5 748.0 C 441.197 754.323 418.197 761.656 395.5 770.0" fill="transparent" stroke="#ff6622"/>
<path d="M 395.5 770.0 C 335.167 786.367 273.834 792.033 211.5 787.0" fill="transparent" stroke="#ffda21"/>
<path d="M 211.5 787.0 C 186.405 784.726 162.405 778.393 139.5 768.0" fill="transparent" stroke="#33dd00"/>
<path d="M 139.5 768.0 C 102.229 746.637 87.3955 714.471 95.0 671.5" fill="transparent" stroke="#1133cc"/>
<path d="M 95.0 671.5 C 101.13 628.997 105.797 586.33 109.0 543.5" fill="transparent" stroke="#220066"/>
<path d="M 109.0 543.5 C 111.203 511.138 110.869 478.805 108.0 446.5" fill="transparent" stroke="#d10000"/>
<path d="M 108.0 446.5 C 105.075 418.658 94.0746 394.658 75.0 374.5" fill="transparent" stroke="#ff6622"/>
<path d="M 75.0 374.5 C 59.7144 352.079 54.3811 327.412 59.0 300.5" fill="transparent" stroke="#ffda21"/>
<path d="M 59.0 300.5 C 62.3938 287.709 68.3938 276.376 77.0 266.5" fill="transparent" stroke="#33dd00"/>
<path d="M 77.0 266.5 C 89.701 253.467 102.034 240.134 114.0 226.5" fill="transparent" stroke="#1133cc"/>
<path d="M 114.0 226.5 C 120.61 217.28 125.61 207.28 129.0 196.5" fill="transparent" stroke="#220066"/>
<path d="M 129.0 196.5 C 130.0 185.5 131.0 174.5 132.0 163.5" fill="transparent" stroke="#d10000"/>
<path d="M 132.0 163.5 C 132.884 155.835 135.884 149.169 141.0 143.5" fill="transparent" stroke="#ff6622"/>
<path d="M 141.0 143.5 C 163.69 119.562 190.523 101.729 221.5 90.0" fill="transparent" stroke="#ffda21"/>
<path d="M 221.5 90.0 C 233.967 85.3829 246.634 81.3829 259.5 78.0" fill="transparent" stroke="#33dd00"/>
<path d="M 259.5 78.0 C 272.091 76.1047 284.757 75.2714 297.5 75.5" fill="transparent" stroke="#1133cc"/>
<path d="M 297.5 75.5 C 324.53 76.4269 351.53 77.9269 378.5 80.0" fill="transparent" stroke="#220066"/>
<path d="M 378.5 80.0 C 402.245 80.8845 425.912 79.8845 449.5 77.0" fill="transparent" stroke="#d10000"/>
<path d="M 449.5 77.0 C 473.785 73.0081 498.118 69.3414 522.5 66.0" fill="transparent" stroke="#ff6622"/>
<path d="M 522.5 66.0 C 582.334 57.4997 638.001 68.8331 689.5 100.0" fill="transparent" stroke="#ffda21"/>
<path d="M 689.5 100.0 C 717.412 118.541 745.578 136.707 774.0 154.5" fill="transparent" stroke="#33dd00"/>
<path d="M 774.0 154.5 C 778.721 151.618 779.721 147.618 777.0 142.5" fill="transparent" stroke="#1133cc"/>
<path d="M 777.0 142.5 C 747.187 115.703 714.354 93.2032 678.5 75.0" fill="transparent" stroke="#220066"/>
<path d="M 678.5 75.0 C 641.54 57.9413 602.706 49.4413 562.0 49.5" fill="transparent" stroke="#d10000"/>
<path d="M 562.0 49.5 C 541.225 51.3539 520.392 53.1872 499.5 55.0" fill="transparent" stroke="#ff6622"/>
<path d="M 499.5 55.0 C 472.206 58.6617 444.873 61.9951 417.5 65.0" fill="transparent" stroke="#ffda21"/>
<path d="M 417.5 65.0 C 395.491 66.8866 373.491 66.8866 351.5 65.0" fill="transparent" stroke="#33dd00"/>
<path d="M 351.5 65.0 C 381.218 61.4102 410.885 57.4102 440.5 53.0" fill="transparent" stroke="#1133cc"/>
<path d="M 440.5 53.0 C 474.051 50.1365 507.384 46.6365 540.5 42.5" fill="transparent" stroke="#220066"/>
<path d="M 530.5 82.5 C 608.642 78.1628 678.308 99.9962 739.5 148.0" fill="transparent" stroke="#000000"/>
<path d="M 739.5 148.0 C 747.539 154.372 754.539 161.705 760.5 170.0" fill="transparent" stroke="#ff6622"/>
<path d="M 760.5 170.0 C 759.663 171.011 759.33 172.178 759.5 173.5" fill="transparent" stroke="#ffda21"/>
<path d="M 759.5 173.5 C 756.375 173.135 753.375 172.302 750.5 171.0" fill="transparent" stroke="#33dd00"/>
<path d="M 750.5 171.0 C 697.47 128.641 637.137 102.975 569.5 94.0" fill="transparent" stroke="#1133cc"/>
<path d="M 569.5 94.0 C 549.165 92.0185 528.832 92.0185 508.5 94.0" fill="transparent" stroke="#220066"/>
<path d="M 508.5 94.0 C 482.775 97.6117 457.108 101.612 431.5 106.0" fill="transparent" stroke="#d10000"/>
<path d="M 431.5 106.0 C 400.605 110.393 369.605 111.393 338.5 109.0" fill="transparent" stroke="#ff6622"/>
<path d="M 338.5 109.0 C 315.216 105.983 291.883 103.483 268.5 101.5" fill="transparent" stroke="#ffda21"/>
<path d="M 268.5 101.5 C 260.759 101.63 253.092 102.463 245.5 104.0" fill="transparent" stroke="#33dd00"/>
<path d="M 245.5 104.0 C 238.562 106.48 231.562 108.647 224.5 110.5" fill="transparent" stroke="#1133cc"/>
<path d="M 224.5 110.5 C 223.424 104.488 225.758 99.9879 231.5 97.0" fill="transparent" stroke="#220066"/>
<path d="M 231.5 97.0 C 235.281 94.7754 239.281 93.1087 243.5 92.0" fill="transparent" stroke="#d10000"/>
<path d="M 243.5 92.0 C 250.735 91.3016 257.902 90.4682 265.0 89.5" fill="transparent" stroke="#ff6622"/>
<path d="M 265.0 89.5 C 289.245 91.622 313.411 94.7887 337.5 99.0" fill="transparent" stroke="#ffda21"/>
<path d="M 337.5 99.0 C 359.857 100.989 382.191 100.655 404.5 98.0" fill="transparent" stroke="#33dd00"/>
<path d="M 404.5 98.0 C 436.833 93.6668 469.166 89.3334 501.5 85.0" fill="transparent" stroke="#1133cc"/>
<path d="M 501.5 85.0 C 511.322 84.1812 520.989 83.3478 530.5 82.5" fill="transparent" stroke="#220066"/>
<path d="M 546.5 114.5 C 578.454 113.559 610.121 116.059 641.5 122.0" fill="transparent" stroke="#000000"/>
<path d="M 641.5 122.0 C 665.796 127.151 687.796 137.151 707.5 152.0" fill="transparent" stroke="#ff6622"/>
<path d="M 707.5 152.0 C 715.343 158.502 721.677 166.168 726.5 175.0" fill="transparent" stroke="#ffda21"/>
<path d="M 726.5 175.0 C 725.663 176.011 725.33 177.178 725.5 178.5" fill="transparent" stroke="#33dd00"/>
<path d="M 725.5 178.5 C 723.146 178.162 720.813 177.662 718.5 177.0" fill="transparent" stroke="#1133cc"/>
<path d="M 718.5 177.0 C 697.802 156.309 673.136 142.309 644.5 135.0" fill="transparent" stroke="#220066"/>
<path d="M 644.5 135.0 C 628.403 130.714 612.07 127.714 595.5 126.0" fill="transparent" stroke="#d10000"/>
<path d="M 595.5 126.0 C 568.147 124.407 540.814 122.74 513.5 121.0" fill="transparent" stroke="#ff6622"/>
<path d="M 513.5 121.0 C 512.359 120.259 512.359 119.425 513.5 118.5" fill="transparent" stroke="#ffda21"/>
<path d="M 513.5 118.5 C 514.729 117.719 516.062 117.219 517.5 117.0" fill="transparent" stroke="#33dd00"/>
<path d="M 517.5 117.0 C 527.322 116.181 536.989 115.348 546.5 114.5" fill="transparent" stroke="#1133cc"/>
<path d="M 300.5 124.5 C 320.274 123.981 339.94 125.148 359.5 128.0" fill="transparent" stroke="#000000"/>
<path d="M 359.5 128.0 C 366.273 129.146 372.606 131.48 378.5 135.0" fill="transparent" stroke="#ff6622"/>
<path d="M 378.5 135.0 C 387.486 142.663 386.153 145.996 374.5 145.0" fill="transparent" stroke="#ffda21"/>
<path d="M 374.5 145.0 C 339.852 135.806 304.852 134.14 269.5 140.0" fill="transparent" stroke="#33dd00"/>
<path d="M 269.5 140.0 C 244.927 145.346 227.093 159.179 216.0 181.5" fill="transparent" stroke="#1133cc"/>
<path d="M 216.0 181.5 C 212.326 175.59 211.992 169.256 215.0 162.5" fill="transparent" stroke="#220066"/>
<path d="M 215.0 162.5 C 218.725 154.108 224.559 147.608 232.5 143.0" fill="transparent" stroke="#d10000"/>
<path d="M 232.5 143.0 C 253.842 131.5 276.508 125.334 300.5 124.5" fill="transparent" stroke="#ff6622"/>
<path d="M 526.5 126.5 C 528.487 127.164 530.154 128.331 531.5 130.0" fill="transparent" stroke="#000000"/>
<path d="M 531.5 130.0 C 524.578 136.918 518.411 144.418 513.0 152.5" fill="transparent" stroke="#ff6622"/>
<path d="M 513.0 152.5 C 508.821 161.39 506.154 170.723 505.0 180.5" fill="transparent" stroke="#ffda21"/>
<path d="M 505.0 180.5 C 503.126 182.776 501.459 182.443 500.0 179.5" fill="transparent" stroke="#33dd00"/>
<path d="M 500.0 179.5 C 496.345 165.086 498.345 151.419 506.0 138.5" fill="transparent" stroke="#1133cc"/>
<path d="M 506.0 138.5 C 511.773 132.535 518.607 128.535 526.5 126.5" fill="transparent" stroke="#220066"/>
<path d="M 353.5 157.5 C 364.533 154.879 371.7 158.879 375.0 169.5" fill="transparent" stroke="#000000"/>
<path d="M 375.0 169.5 C 378.435 184.904 378.268 200.238 374.5 215.5" fill="transparent" stroke="#ff6622"/>
<path d="M 374.5 215.5 C 372.799 215.966 371.299 215.966 370.0 215.5" fill="transparent" stroke="#ffda21"/>
<path d="M 370.0 215.5 C 368.261 204.236 366.928 192.902 366.0 181.5" fill="transparent" stroke="#33dd00"/>
<path d="M 366.0 181.5 C 364.216 173.717 360.049 167.55 353.5 163.0" fill="transparent" stroke="#1133cc"/>
<path d="M 353.5 163.0 C 352.851 161.31 352.851 159.477 353.5 157.5" fill="transparent" stroke="#220066"/>
<path d="M 603.5 182.5 C 638.58 179.147 671.246 186.314 701.5 204.0" fill="transparent" stroke="#000000"/>
<path d="M 701.5 204.0 C 716.135 214.57 726.135 228.57 731.5 246.0" fill="transparent" stroke="#ff6622"/>
<path d="M 731.5 246.0 C 726.676 252.082 720.343 255.582 712.5 256.5" fill="transparent" stroke="#ffda21"/>
<path d="M 712.5 256.5 C 711.216 243.099 705.55 231.932 695.5 223.0" fill="transparent" stroke="#33dd00"/>
<path d="M 695.5 223.0 C 689.258 221.63 682.925 221.13 676.5 221.5" fill="transparent" stroke="#1133cc"/>
<path d="M 676.5 221.5 C 678.182 227.822 681.682 233.155 687.0 237.5" fill="transparent" stroke="#220066"/>
<path d="M 687.0 237.5 C 690.419 242.668 693.585 248.002 696.5 253.5" fill="transparent" stroke="#d10000"/>
<path d="M 696.5 253.5 C 696.0 253.833 695.5 254.167 695.0 254.5" fill="transparent" stroke="#ff6622"/>
<path d="M 695.0 254.5 C 657.396 243.506 619.896 244.006 582.5 256.0" fill="transparent" stroke="#ffda21"/>
<path d="M 582.5 256.0 C 570.046 259.814 557.879 264.314 546.0 269.5" fill="transparent" stroke="#33dd00"/>
<path d="M 546.0 269.5 C 539.404 265.997 534.904 260.663 532.5 253.5" fill="transparent" stroke="#1133cc"/>
<path d="M 532.5 253.5 C 536.192 252.436 539.858 251.27 543.5 250.0" fill="transparent" stroke="#220066"/>
<path d="M 543.5 250.0 C 552.167 245.333 560.833 240.667 569.5 236.0" fill="transparent" stroke="#d10000"/>
<path d="M 569.5 236.0 C 576.996 233.584 584.662 231.917 592.5 231.0" fill="transparent" stroke="#ff6622"/>
<path d="M 592.5 231.0 C 593.624 230.161 594.291 228.994 594.5 227.5" fill="transparent" stroke="#ffda21"/>
<path d="M 594.5 227.5 C 593.701 220.669 592.201 214.003 590.0 207.5" fill="transparent" stroke="#33dd00"/>
<path d="M 590.0 207.5 C 587.749 203.874 584.582 202.707 580.5 204.0" fill="transparent" stroke="#1133cc"/>
<path d="M 580.5 204.0 C 567.728 209.258 554.728 213.924 541.5 218.0" fill="transparent" stroke="#220066"/>
<path d="M 541.5 218.0 C 532.57 221.923 525.07 227.756 519.0 235.5" fill="transparent" stroke="#d10000"/>
<path d="M 519.0 235.5 C 509.43 251.197 512.263 264.197 527.5 274.5" fill="transparent" stroke="#ff6622"/>
<path d="M 527.5 274.5 C 528.386 275.325 528.719 276.325 528.5 277.5" fill="transparent" stroke="#ffda21"/>
<path d="M 528.5 277.5 C 524.661 279.167 520.661 279.667 516.5 279.0" fill="transparent" stroke="#33dd00"/>
<path d="M 516.5 279.0 C 504.034 274.2 495.201 265.7 490.0 253.5" fill="transparent" stroke="#1133cc"/>
<path d="M 490.0 253.5 C 487.242 243.193 489.242 233.86 496.0 225.5" fill="transparent" stroke="#220066"/>
<path d="M 496.0 225.5 C 508.745 212.869 523.579 203.369 540.5 197.0" fill="transparent" stroke="#d10000"/>
<path d="M 540.5 197.0 C 560.923 189.02 581.923 184.186 603.5 182.5" fill="transparent" stroke="#ff6622"/>
<path d="M 273.5 206.5 C 312.958 204.378 348.291 215.212 379.5 239.0" fill="transparent" stroke="#000000"/>
<path d="M 379.5 239.0 C 381.126 241.628 383.126 243.961 385.5 246.0" fill="transparent" stroke="#ff6622"/>
<path d="M 385.5 246.0 C 392.476 245.395 399.476 244.562 406.5 243.5" fill="transparent" stroke="#ffda21"/>
<path d="M 406.5 243.5 C 419.625 244.244 422.291 249.744 414.5 260.0" fill="transparent" stroke="#33dd00"/>
<path d="M 414.5 260.0 C 405.347 264.329 396.18 268.495 387.0 272.5" fill="transparent" stroke="#1133cc"/>
<path d="M 387.0 272.5 C 386.153 289.845 385.153 307.179 384.0 324.5" fill="transparent" stroke="#220066"/>
<path d="M 384.0 324.5 C 373.252 331.791 362.419 338.958 351.5 346.0" fill="transparent" stroke="#d10000"/>
<path d="M 351.5 346.0 C 347.667 349.833 343.833 353.667 340.0 357.5" fill="transparent" stroke="#ff6622"/>
<path d="M 340.0 357.5 C 339.238 363.0 340.572 368.0 344.0 372.5" fill="transparent" stroke="#ffda21"/>
<path d="M 344.0 372.5 C 353.167 387.0 365.0 398.833 379.5 408.0" fill="transparent" stroke="#33dd00"/>
<path d="M 379.5 408.0 C 382.03 409.422 384.697 409.755 387.5 409.0" fill="transparent" stroke="#1133cc"/>
<path d="M 387.5 409.0 C 393.657 405.171 400.157 402.005 407.0 399.5" fill="transparent" stroke="#220066"/>
<path d="M 407.0 399.5 C 409.577 400.271 412.077 401.271 414.5 402.5" fill="transparent" stroke="#d10000"/>
<path d="M 414.5 402.5 C 411.861 409.112 408.694 415.446 405.0 421.5" fill="transparent" stroke="#ff6622"/>
<path d="M 405.0 421.5 C 396.779 428.744 387.613 430.578 377.5 427.0" fill="transparent" stroke="#ffda21"/>
<path d="M 377.5 427.0 C 369.507 423.675 362.174 419.341 355.5 414.0" fill="transparent" stroke="#33dd00"/>
<path d="M 355.5 414.0 C 343.958 402.792 332.791 391.292 322.0 379.5" fill="transparent" stroke="#1133cc"/>
<path d="M 322.0 379.5 C 318.569 381.261 315.403 383.428 312.5 386.0" fill="transparent" stroke="#220066"/>
<path d="M 312.5 386.0 C 309.269 387.466 305.935 388.633 302.5 389.5" fill="transparent" stroke="#d10000"/>
<path d="M 302.5 389.5 C 302.256 384.372 300.756 379.705 298.0 375.5" fill="transparent" stroke="#ff6622"/>
<path d="M 298.0 375.5 C 297.196 374.196 296.029 373.529 294.5 373.5" fill="transparent" stroke="#ffda21"/>
<path d="M 294.5 373.5 C 291.803 374.232 289.136 375.066 286.5 376.0" fill="transparent" stroke="#33dd00"/>
<path d="M 286.5 376.0 C 278.525 381.136 270.192 385.636 261.5 389.5" fill="transparent" stroke="#1133cc"/>
<path d="M 261.5 389.5 C 260.792 387.108 261.458 384.941 263.5 383.0" fill="transparent" stroke="#220066"/>
<path d="M 263.5 383.0 C 274.437 376.393 285.104 369.393 295.5 362.0" fill="transparent" stroke="#d10000"/>
<path d="M 295.5 362.0 C 318.05 344.449 340.884 327.282 364.0 310.5" fill="transparent" stroke="#ff6622"/>
<path d="M 364.0 310.5 C 364.667 298.167 364.667 285.833 364.0 273.5" fill="transparent" stroke="#ffda21"/>
<path d="M 364.0 273.5 C 360.764 270.129 356.931 267.629 352.5 266.0" fill="transparent" stroke="#33dd00"/>
<path d="M 352.5 266.0 C 345.337 263.376 338.004 261.376 330.5 260.0" fill="transparent" stroke="#1133cc"/>
<path d="M 330.5 260.0 C 305.604 256.453 280.604 253.953 255.5 252.5" fill="transparent" stroke="#220066"/>
<path d="M 255.5 252.5 C 255.5 251.5 255.5 250.5 255.5 249.5" fill="transparent" stroke="#d10000"/>
<path d="M 255.5 249.5 C 267.089 243.543 279.089 238.377 291.5 234.0" fill="transparent" stroke="#ff6622"/>
<path d="M 291.5 234.0 C 293.5 232.333 295.5 230.667 297.5 229.0" fill="transparent" stroke="#ffda21"/>
<path d="M 297.5 229.0 C 278.947 223.914 261.28 226.247 244.5 236.0" fill="transparent" stroke="#33dd00"/>
<path d="M 244.5 236.0 C 240.633 240.202 236.467 244.035 232.0 247.5" fill="transparent" stroke="#1133cc"/>
<path d="M 232.0 247.5 C 228.435 246.199 224.935 244.699 221.5 243.0" fill="transparent" stroke="#220066"/>
<path d="M 221.5 243.0 C 220.833 242.0 220.167 241.0 219.5 240.0" fill="transparent" stroke="#d10000"/>
<path d="M 219.5 240.0 C 222.42 231.16 227.753 224.16 235.5 219.0" fill="transparent" stroke="#ff6622"/>
<path d="M 235.5 219.0 C 247.187 211.493 259.854 207.326 273.5 206.5" fill="transparent" stroke="#ffda21"/>
<path d="M 743.5 227.5 C 752.391 228.245 761.058 230.078 769.5 233.0" fill="transparent" stroke="#000000"/>
<path d="M 769.5 233.0 C 775.196 233.17 780.862 233.67 786.5 234.5" fill="transparent" stroke="#ff6622"/>
<path d="M 786.5 234.5 C 784.905 237.68 783.905 241.013 783.5 244.5" fill="transparent" stroke="#ffda21"/>
<path d="M 783.5 244.5 C 778.968 245.763 774.635 247.597 770.5 250.0" fill="transparent" stroke="#33dd00"/>
<path d="M 770.5 250.0 C 766.173 253.499 761.506 256.499 756.5 259.0" fill="transparent" stroke="#1133cc"/>
<path d="M 756.5 259.0 C 753.833 259.667 751.167 259.667 748.5 259.0" fill="transparent" stroke="#220066"/>
<path d="M 748.5 259.0 C 746.783 257.441 744.783 256.608 742.5 256.5" fill="transparent" stroke="#d10000"/>
<path d="M 742.5 256.5 C 744.588 251.882 747.754 247.882 752.0 244.5" fill="transparent" stroke="#ff6622"/>
<path d="M 752.0 244.5 C 754.715 237.317 752.215 232.651 744.5 230.5" fill="transparent" stroke="#ffda21"/>
<path d="M 744.5 230.5 C 743.614 229.675 743.281 228.675 743.5 227.5" fill="transparent" stroke="#33dd00"/>
<path d="M 158.5 235.5 C 171.169 235.767 183.836 236.1 196.5 236.5" fill="transparent" stroke="#000000"/>
<path d="M 196.5 236.5 C 196.5 237.5 196.5 238.5 196.5 239.5" fill="transparent" stroke="#ff6622"/>
<path d="M 196.5 239.5 C 169.358 237.496 143.358 241.996 118.5 253.0" fill="transparent" stroke="#ffda21"/>
<path d="M 118.5 253.0 C 75.3151 275.503 62.1484 310.003 79.0 356.5" fill="transparent" stroke="#33dd00"/>
<path d="M 79.0 356.5 C 85.3667 370.935 96.2001 380.102 111.5 384.0" fill="transparent" stroke="#1133cc"/>
<path d="M 111.5 384.0 C 119.328 386.663 124.662 391.829 127.5 399.5" fill="transparent" stroke="#220066"/>
<path d="M 127.5 399.5 C 111.016 398.007 97.1826 391.007 86.0 378.5" fill="transparent" stroke="#d10000"/>
<path d="M 86.0 378.5 C 66.4911 353.464 60.4911 325.464 68.0 294.5" fill="transparent" stroke="#ff6622"/>
<path d="M 68.0 294.5 C 78.2051 266.633 97.7051 248.8 126.5 241.0" fill="transparent" stroke="#ffda21"/>
<path d="M 126.5 241.0 C 137.189 238.453 147.856 236.62 158.5 235.5" fill="transparent" stroke="#33dd00"/>
<path d="M 848.5 238.5 C 861.438 239.36 874.438 240.193 887.5 241.0" fill="transparent" stroke="#000000"/>
<path d="M 887.5 241.0 C 904.029 243.766 919.029 250.099 932.5 260.0" fill="transparent" stroke="#ff6622"/>
<path d="M 932.5 260.0 C 938.081 267.828 943.415 275.828 948.5 284.0" fill="transparent" stroke="#ffda21"/>
<path d="M 948.5 284.0 C 947.667 285.5 946.5 286.667 945.0 287.5" fill="transparent" stroke="#33dd00"/>
<path d="M 945.0 287.5 C 928.035 264.244 905.202 250.411 876.5 246.0" fill="transparent" stroke="#1133cc"/>
<path d="M 876.5 246.0 C 862.789 245.243 849.122 244.076 835.5 242.5" fill="transparent" stroke="#220066"/>
<path d="M 835.5 242.5 C 833.431 242.176 833.098 241.342 834.5 240.0" fill="transparent" stroke="#d10000"/>
<path d="M 834.5 240.0 C 839.351 239.826 844.018 239.326 848.5 238.5" fill="transparent" stroke="#ff6622"/>
<path d="M 814.5 256.5 C 844.268 254.105 870.935 261.938 894.5 280.0" fill="transparent" stroke="#000000"/>
<path d="M 894.5 280.0 C 925.103 310.985 929.603 345.485 908.0 383.5" fill="transparent" stroke="#ff6622"/>
<path d="M 908.0 383.5 C 904.39 390.272 899.557 395.938 893.5 400.5" fill="transparent" stroke="#ffda21"/>
<path d="M 893.5 400.5 C 890.072 390.933 890.238 381.266 894.0 371.5" fill="transparent" stroke="#33dd00"/>
<path d="M 894.0 371.5 C 910.753 334.793 902.586 305.293 869.5 283.0" fill="transparent" stroke="#1133cc"/>
<path d="M 869.5 283.0 C 853.576 275.835 836.909 273.502 819.5 276.0" fill="transparent" stroke="#220066"/>
<path d="M 819.5 276.0 C 816.363 276.601 813.363 277.601 810.5 279.0" fill="transparent" stroke="#d10000"/>
<path d="M 810.5 279.0 C 791.052 295.22 768.719 305.22 743.5 309.0" fill="transparent" stroke="#ff6622"/>
<path d="M 743.5 309.0 C 716.062 314.798 688.729 313.798 661.5 306.0" fill="transparent" stroke="#ffda21"/>
<path d="M 661.5 306.0 C 637.941 299.276 624.608 283.776 621.5 259.5" fill="transparent" stroke="#33dd00"/>
<path d="M 621.5 259.5 C 621.833 258.833 622.167 258.167 622.5 257.5" fill="transparent" stroke="#1133cc"/>
<path d="M 622.5 257.5 C 637.095 262.793 650.095 270.626 661.5 281.0" fill="transparent" stroke="#220066"/>
<path d="M 661.5 281.0 C 683.28 295.956 706.613 298.623 731.5 289.0" fill="transparent" stroke="#d10000"/>
<path d="M 731.5 289.0 C 749.71 279.728 768.044 270.728 786.5 262.0" fill="transparent" stroke="#ff6622"/>
<path d="M 786.5 262.0 C 795.829 259.394 805.162 257.56 814.5 256.5" fill="transparent" stroke="#ffda21"/>
<path d="M 130.5 261.5 C 135.8 262.926 136.634 265.592 133.0 269.5" fill="transparent" stroke="#000000"/>
<path d="M 133.0 269.5 C 126.0 275.833 119.0 282.167 112.0 288.5" fill="transparent" stroke="#ff6622"/>
<path d="M 112.0 288.5 C 103.392 297.396 99.5583 308.062 100.5 320.5" fill="transparent" stroke="#ffda21"/>
<path d="M 100.5 320.5 C 100.282 327.968 101.116 335.301 103.0 342.5" fill="transparent" stroke="#33dd00"/>
<path d="M 103.0 342.5 C 108.198 348.033 113.698 353.2 119.5 358.0" fill="transparent" stroke="#1133cc"/>
<path d="M 119.5 358.0 C 121.818 359.993 124.484 361.159 127.5 361.5" fill="transparent" stroke="#220066"/>
<path d="M 127.5 361.5 C 128.052 363.331 128.052 364.997 127.5 366.5" fill="transparent" stroke="#d10000"/>
<path d="M 127.5 366.5 C 110.136 371.232 98.9698 364.899 94.0 347.5" fill="transparent" stroke="#ff6622"/>
<path d="M 94.0 347.5 C 93.1011 340.027 92.6011 332.527 92.5 325.0" fill="transparent" stroke="#ffda21"/>
<path d="M 92.5 325.0 C 93.2456 309.799 94.4123 294.632 96.0 279.5" fill="transparent" stroke="#33dd00"/>
<path d="M 96.0 279.5 C 107.325 273.088 118.825 267.088 130.5 261.5" fill="transparent" stroke="#1133cc"/>
<path d="M 156.5 282.5 C 188.599 281.922 217.265 291.422 242.5 311.0" fill="transparent" stroke="#000000"/>
<path d="M 242.5 311.0 C 245.303 311.755 247.97 311.422 250.5 310.0" fill="transparent" stroke="#ff6622"/>
<path d="M 250.5 310.0 C 257.892 302.787 266.558 299.287 276.5 299.5" fill="transparent" stroke="#ffda21"/>
<path d="M 276.5 299.5 C 278.182 308.086 276.516 316.086 271.5 323.5" fill="transparent" stroke="#33dd00"/>
<path d="M 271.5 323.5 C 259.728 330.11 247.062 333.276 233.5 333.0" fill="transparent" stroke="#1133cc"/>
<path d="M 233.5 333.0 C 226.833 333.667 220.167 333.667 213.5 333.0" fill="transparent" stroke="#220066"/>
<path d="M 213.5 333.0 C 212.234 332.691 211.067 332.191 210.0 331.5" fill="transparent" stroke="#d10000"/>
<path d="M 210.0 331.5 C 204.048 307.264 188.881 298.431 164.5 305.0" fill="transparent" stroke="#ff6622"/>
<path d="M 164.5 305.0 C 149.842 307.565 135.175 310.065 120.5 312.5" fill="transparent" stroke="#ffda21"/>
<path d="M 120.5 312.5 C 119.833 312.167 119.167 311.833 118.5 311.5" fill="transparent" stroke="#33dd00"/>
<path d="M 118.5 311.5 C 121.372 304.247 125.372 297.747 130.5 292.0" fill="transparent" stroke="#1133cc"/>
<path d="M 130.5 292.0 C 138.584 286.771 147.251 283.605 156.5 282.5" fill="transparent" stroke="#220066"/>
<path d="M 815.5 292.5 C 819.23 292.854 822.563 294.187 825.5 296.5" fill="transparent" stroke="#000000"/>
<path d="M 825.5 296.5 C 829.837 306.672 829.671 317.006 825.0 327.5" fill="transparent" stroke="#ff6622"/>
<path d="M 825.0 327.5 C 821.941 334.559 817.108 340.059 810.5 344.0" fill="transparent" stroke="#ffda21"/>
<path d="M 810.5 344.0 C 800.227 346.536 790.227 349.869 780.5 354.0" fill="transparent" stroke="#33dd00"/>
<path d="M 780.5 354.0 C 763.678 365.746 745.678 375.413 726.5 383.0" fill="transparent" stroke="#1133cc"/>
<path d="M 726.5 383.0 C 721.672 386.581 716.672 389.915 711.5 393.0" fill="transparent" stroke="#220066"/>
<path d="M 711.5 393.0 C 695.481 396.537 679.481 400.204 663.5 404.0" fill="transparent" stroke="#d10000"/>
<path d="M 663.5 404.0 C 634.242 414.086 604.575 422.753 574.5 430.0" fill="transparent" stroke="#ff6622"/>
<path d="M 574.5 430.0 C 568.051 432.391 561.718 435.058 555.5 438.0" fill="transparent" stroke="#ffda21"/>
<path d="M 555.5 438.0 C 526.136 444.206 496.803 450.539 467.5 457.0" fill="transparent" stroke="#33dd00"/>
<path d="M 467.5 457.0 C 452.577 458.998 437.577 459.998 422.5 460.0" fill="transparent" stroke="#1133cc"/>
<path d="M 422.5 460.0 C 406.072 463.011 389.572 464.844 373.0 465.5" fill="transparent" stroke="#220066"/>
<path d="M 373.0 465.5 C 347.483 464.115 321.983 461.949 296.5 459.0" fill="transparent" stroke="#d10000"/>
<path d="M 296.5 459.0 C 286.227 456.464 276.227 453.131 266.5 449.0" fill="transparent" stroke="#ff6622"/>
<path d="M 266.5 449.0 C 263.24 448.216 260.073 448.383 257.0 449.5" fill="transparent" stroke="#ffda21"/>
<path d="M 257.0 449.5 C 237.36 441.68 218.693 432.013 201.0 420.5" fill="transparent" stroke="#33dd00"/>
<path d="M 201.0 420.5 C 195.662 409.842 194.496 398.842 197.5 387.5" fill="transparent" stroke="#1133cc"/>
<path d="M 197.5 387.5 C 209.75 400.58 224.083 410.747 240.5 418.0" fill="transparent" stroke="#220066"/>
<path d="M 240.5 418.0 C 295.735 440.073 353.069 448.74 412.5 444.0" fill="transparent" stroke="#d10000"/>
<path d="M 412.5 444.0 C 476.393 439.527 538.393 426.194 598.5 404.0" fill="transparent" stroke="#ff6622"/>
<path d="M 598.5 404.0 C 649.399 385.05 699.732 364.716 749.5 343.0" fill="transparent" stroke="#ffda21"/>
<path d="M 749.5 343.0 C 769.102 335.278 788.602 327.444 808.0 319.5" fill="transparent" stroke="#33dd00"/>
<path d="M 808.0 319.5 C 810.041 310.33 812.541 301.33 815.5 292.5" fill="transparent" stroke="#1133cc"/>
<path d="M 949.5 311.5 C 951.229 312.117 952.729 313.117 954.0 314.5" fill="transparent" stroke="#000000"/>
<path d="M 954.0 314.5 C 955.356 320.666 956.522 326.833 957.5 333.0" fill="transparent" stroke="#ff6622"/>
<path d="M 957.5 333.0 C 954.701 356.627 950.868 380.127 946.0 403.5" fill="transparent" stroke="#ffda21"/>
<path d="M 946.0 403.5 C 934.077 414.411 920.41 422.411 905.0 427.5" fill="transparent" stroke="#33dd00"/>
<path d="M 905.0 427.5 C 903.644 426.62 902.144 426.286 900.5 426.5" fill="transparent" stroke="#1133cc"/>
<path d="M 900.5 426.5 C 899.629 423.938 899.629 421.272 900.5 418.5" fill="transparent" stroke="#220066"/>
<path d="M 900.5 418.5 C 911.815 414.913 920.982 408.246 928.0 398.5" fill="transparent" stroke="#d10000"/>
<path d="M 928.0 398.5 C 936.488 385.042 941.821 370.375 944.0 354.5" fill="transparent" stroke="#ff6622"/>
<path d="M 944.0 354.5 C 945.475 340.536 946.309 326.536 946.5 312.5" fill="transparent" stroke="#ffda21"/>
<path d="M 946.5 312.5 C 947.791 312.737 948.791 312.404 949.5 311.5" fill="transparent" stroke="#33dd00"/>
<path d="M 173.5 322.5 C 176.93 322.107 180.096 322.773 183.0 324.5" fill="transparent" stroke="#000000"/>
<path d="M 183.0 324.5 C 186.104 329.036 187.77 334.036 188.0 339.5" fill="transparent" stroke="#ff6622"/>
<path d="M 188.0 339.5 C 188.667 346.833 188.667 354.167 188.0 361.5" fill="transparent" stroke="#ffda21"/>
<path d="M 188.0 361.5 C 183.899 374.907 180.899 388.573 179.0 402.5" fill="transparent" stroke="#33dd00"/>
<path d="M 179.0 402.5 C 177.661 423.961 178.661 445.294 182.0 466.5" fill="transparent" stroke="#1133cc"/>
<path d="M 182.0 466.5 C 184.346 471.513 188.013 475.179 193.0 477.5" fill="transparent" stroke="#220066"/>
<path d="M 193.0 477.5 C 193.5 477.167 194.0 476.833 194.5 476.5" fill="transparent" stroke="#d10000"/>
<path d="M 194.5 476.5 C 198.064 463.345 200.731 450.012 202.5 436.5" fill="transparent" stroke="#ff6622"/>
<path d="M 202.5 436.5 C 208.13 437.482 213.13 439.815 217.5 443.5" fill="transparent" stroke="#ffda21"/>
<path d="M 217.5 443.5 C 217.698 457.717 219.531 471.717 223.0 485.5" fill="transparent" stroke="#33dd00"/>
<path d="M 223.0 485.5 C 223.519 486.516 224.353 487.182 225.5 487.5" fill="transparent" stroke="#1133cc"/>
<path d="M 225.5 487.5 C 231.973 488.428 238.306 489.928 244.5 492.0" fill="transparent" stroke="#220066"/>
<path d="M 244.5 492.0 C 246.5 492.667 248.5 492.667 250.5 492.0" fill="transparent" stroke="#d10000"/>
<path d="M 250.5 492.0 C 251.622 488.582 251.289 485.249 249.5 482.0" fill="transparent" stroke="#ff6622"/>
<path d="M 249.5 482.0 C 251.617 474.592 254.45 467.426 258.0 460.5" fill="transparent" stroke="#ffda21"/>
<path d="M 258.0 460.5 C 259.333 459.833 260.667 459.167 262.0 458.5" fill="transparent" stroke="#33dd00"/>
<path d="M 262.0 458.5 C 267.544 460.071 273.044 461.737 278.5 463.5" fill="transparent" stroke="#1133cc"/>
<path d="M 278.5 463.5 C 277.182 472.273 274.848 480.773 271.5 489.0" fill="transparent" stroke="#220066"/>
<path d="M 271.5 489.0 C 271.613 490.28 272.28 491.113 273.5 491.5" fill="transparent" stroke="#d10000"/>
<path d="M 273.5 491.5 C 284.246 494.883 295.246 497.049 306.5 498.0" fill="transparent" stroke="#ff6622"/>
<path d="M 306.5 498.0 C 320.496 498.5 334.496 498.667 348.5 498.5" fill="transparent" stroke="#ffda21"/>
<path d="M 348.5 498.5 C 349.24 490.188 349.573 481.854 349.5 473.5" fill="transparent" stroke="#33dd00"/>
<path d="M 349.5 473.5 C 357.86 473.169 366.193 473.502 374.5 474.5" fill="transparent" stroke="#1133cc"/>
<path d="M 374.5 474.5 C 371.575 480.608 369.242 486.941 367.5 493.5" fill="transparent" stroke="#220066"/>
<path d="M 367.5 493.5 C 367.59 495.425 368.59 496.592 370.5 497.0" fill="transparent" stroke="#d10000"/>
<path d="M 370.5 497.0 C 393.781 498.459 417.114 498.959 440.5 498.5" fill="transparent" stroke="#ff6622"/>
<path d="M 440.5 498.5 C 440.5 488.833 440.5 479.167 440.5 469.5" fill="transparent" stroke="#ffda21"/>
<path d="M 440.5 469.5 C 446.833 469.5 453.167 469.5 459.5 469.5" fill="transparent" stroke="#33dd00"/>
<path d="M 459.5 469.5 C 459.5 479.167 459.5 488.833 459.5 498.5" fill="transparent" stroke="#1133cc"/>
<path d="M 459.5 498.5 C 473.504 498.667 487.504 498.5 501.5 498.0" fill="transparent" stroke="#220066"/>
<path d="M 501.5 498.0 C 524.134 494.632 546.3 489.466 568.0 482.5" fill="transparent" stroke="#d10000"/>
<path d="M 568.0 482.5 C 567.809 470.686 566.309 459.019 563.5 447.5" fill="transparent" stroke="#ff6622"/>
<path d="M 563.5 447.5 C 570.355 445.105 577.355 443.105 584.5 441.5" fill="transparent" stroke="#ffda21"/>
<path d="M 584.5 441.5 C 585.53 451.294 587.364 460.961 590.0 470.5" fill="transparent" stroke="#33dd00"/>
<path d="M 590.0 470.5 C 590.725 471.059 591.558 471.392 592.5 471.5" fill="transparent" stroke="#1133cc"/>
<path d="M 592.5 471.5 C 610.973 465.381 629.64 459.881 648.5 455.0" fill="transparent" stroke="#220066"/>
<path d="M 648.5 455.0 C 666.857 450.575 682.357 441.408 695.0 427.5" fill="transparent" stroke="#d10000"/>
<path d="M 695.0 427.5 C 699.226 421.716 702.392 415.382 704.5 408.5" fill="transparent" stroke="#ff6622"/>
<path d="M 704.5 408.5 C 711.885 405.974 718.885 402.641 725.5 398.5" fill="transparent" stroke="#ffda21"/>
<path d="M 725.5 398.5 C 726.498 406.472 726.831 414.472 726.5 422.5" fill="transparent" stroke="#33dd00"/>
<path d="M 726.5 422.5 C 748.468 420.01 769.135 413.51 788.5 403.0" fill="transparent" stroke="#1133cc"/>
<path d="M 788.5 403.0 C 801.23 393.601 811.063 381.768 818.0 367.5" fill="transparent" stroke="#220066"/>
<path d="M 818.0 367.5 C 827.175 357.991 836.008 348.157 844.5 338.0" fill="transparent" stroke="#d10000"/>
<path d="M 844.5 338.0 C 847.167 337.333 849.833 337.333 852.5 338.0" fill="transparent" stroke="#ff6622"/>
<path d="M 852.5 338.0 C 862.804 343.06 872.304 349.226 881.0 356.5" fill="transparent" stroke="#ffda21"/>
<path d="M 881.0 356.5 C 882.833 360.167 884.667 363.833 886.5 367.5" fill="transparent" stroke="#33dd00"/>
<path d="M 886.5 367.5 C 882.833 367.833 879.167 368.167 875.5 368.5" fill="transparent" stroke="#1133cc"/>
<path d="M 875.5 368.5 C 865.795 367.722 856.128 366.888 846.5 366.0" fill="transparent" stroke="#220066"/>
<path d="M 846.5 366.0 C 834.419 376.489 831.086 389.322 836.5 404.5" fill="transparent" stroke="#d10000"/>
<path d="M 836.5 404.5 C 811.142 418.178 784.808 429.678 757.5 439.0" fill="transparent" stroke="#ff6622"/>
<path d="M 757.5 439.0 C 744.949 444.554 734.449 452.721 726.0 463.5" fill="transparent" stroke="#ffda21"/>
<path d="M 726.0 463.5 C 724.725 465.717 723.725 468.051 723.0 470.5" fill="transparent" stroke="#33dd00"/>
<path d="M 723.0 470.5 C 723.742 485.351 717.909 496.685 705.5 504.5" fill="transparent" stroke="#1133cc"/>
<path d="M 705.5 504.5 C 702.585 494.684 700.418 484.684 699.0 474.5" fill="transparent" stroke="#220066"/>
<path d="M 699.0 474.5 C 698.804 472.714 697.971 471.381 696.5 470.5" fill="transparent" stroke="#d10000"/>
<path d="M 696.5 470.5 C 666.636 487.733 634.97 500.567 601.5 509.0" fill="transparent" stroke="#ff6622"/>
<path d="M 601.5 509.0 C 599.202 520.952 600.702 532.452 606.0 543.5" fill="transparent" stroke="#ffda21"/>
<path d="M 606.0 543.5 C 609.707 550.414 613.54 557.248 617.5 564.0" fill="transparent" stroke="#33dd00"/>
<path d="M 617.5 564.0 C 611.145 568.848 604.145 572.681 596.5 575.5" fill="transparent" stroke="#1133cc"/>
<path d="M 596.5 575.5 C 592.89 565.611 588.723 555.944 584.0 546.5" fill="transparent" stroke="#220066"/>
<path d="M 584.0 546.5 C 580.567 537.1 578.233 527.433 577.0 517.5" fill="transparent" stroke="#d10000"/>
<path d="M 577.0 517.5 C 576.481 516.484 575.647 515.818 574.5 515.5" fill="transparent" stroke="#ff6622"/>
<path d="M 574.5 515.5 C 544.757 530.103 513.423 539.437 480.5 543.5" fill="transparent" stroke="#ffda21"/>
<path d="M 480.5 543.5 C 479.359 562.205 480.026 580.871 482.5 599.5" fill="transparent" stroke="#33dd00"/>
<path d="M 482.5 599.5 C 475.278 600.127 468.278 601.794 461.5 604.5" fill="transparent" stroke="#1133cc"/>
<path d="M 461.5 604.5 C 460.066 586.857 459.066 569.191 458.5 551.5" fill="transparent" stroke="#220066"/>
<path d="M 458.5 551.5 C 445.232 553.987 431.898 556.153 418.5 558.0" fill="transparent" stroke="#d10000"/>
<path d="M 418.5 558.0 C 405.863 559.227 393.197 559.727 380.5 559.5" fill="transparent" stroke="#ff6622"/>
<path d="M 380.5 559.5 C 381.488 575.775 384.155 591.775 388.5 607.5" fill="transparent" stroke="#ffda21"/>
<path d="M 388.5 607.5 C 381.916 607.733 375.249 607.733 368.5 607.5" fill="transparent" stroke="#33dd00"/>
<path d="M 368.5 607.5 C 366.829 585.009 355.495 569.843 334.5 562.0" fill="transparent" stroke="#1133cc"/>
<path d="M 334.5 562.0 C 327.5 561.333 320.5 561.333 313.5 562.0" fill="transparent" stroke="#220066"/>
<path d="M 313.5 562.0 C 310.766 562.21 308.266 563.044 306.0 564.5" fill="transparent" stroke="#d10000"/>
<path d="M 306.0 564.5 C 305.389 568.682 306.056 572.682 308.0 576.5" fill="transparent" stroke="#ff6622"/>
<path d="M 308.0 576.5 C 312.5 586.167 317.0 595.833 321.5 605.5" fill="transparent" stroke="#ffda21"/>
<path d="M 321.5 605.5 C 320.667 605.833 319.833 606.167 319.0 606.5" fill="transparent" stroke="#33dd00"/>
<path d="M 319.0 606.5 C 311.147 605.598 303.314 604.598 295.5 603.5" fill="transparent" stroke="#1133cc"/>
<path d="M 295.5 603.5 C 292.961 596.75 290.128 590.083 287.0 583.5" fill="transparent" stroke="#220066"/>
<path d="M 287.0 583.5 C 285.812 578.049 284.312 572.716 282.5 567.5" fill="transparent" stroke="#d10000"/>
<path d="M 282.5 567.5 C 275.066 565.3 267.733 562.8 260.5 560.0" fill="transparent" stroke="#ff6622"/>
<path d="M 260.5 560.0 C 257.183 559.502 253.85 559.335 250.5 559.5" fill="transparent" stroke="#ffda21"/>
<path d="M 250.5 559.5 C 250.351 562.607 250.851 565.607 252.0 568.5" fill="transparent" stroke="#33dd00"/>
<path d="M 252.0 568.5 C 258.115 576.391 262.948 585.058 266.5 594.5" fill="transparent" stroke="#1133cc"/>
<path d="M 266.5 594.5 C 266.167 594.833 265.833 595.167 265.5 595.5" fill="transparent" stroke="#220066"/>
<path d="M 265.5 595.5 C 256.34 593.116 247.007 591.783 237.5 591.5" fill="transparent" stroke="#d10000"/>
<path d="M 237.5 591.5 C 235.06 573.763 226.06 560.763 210.5 552.5" fill="transparent" stroke="#ff6622"/>
<path d="M 210.5 552.5 C 210.335 555.85 210.502 559.183 211.0 562.5" fill="transparent" stroke="#ffda21"/>
<path d="M 211.0 562.5 C 214.191 568.906 216.691 575.573 218.5 582.5" fill="transparent" stroke="#33dd00"/>
<path d="M 218.5 582.5 C 211.282 582.22 205.116 579.22 200.0 573.5" fill="transparent" stroke="#1133cc"/>
<path d="M 200.0 573.5 C 192.667 564.167 185.333 554.833 178.0 545.5" fill="transparent" stroke="#220066"/>
<path d="M 178.0 545.5 C 170.584 532.999 162.917 520.665 155.0 508.5" fill="transparent" stroke="#d10000"/>
<path d="M 155.0 508.5 C 147.258 496.273 142.924 482.94 142.0 468.5" fill="transparent" stroke="#ff6622"/>
<path d="M 142.0 468.5 C 138.216 425.433 147.216 385.1 169.0 347.5" fill="transparent" stroke="#ffda21"/>
<path d="M 169.0 347.5 C 169.716 338.953 171.216 330.619 173.5 322.5" fill="transparent" stroke="#33dd00"/>
<path d="M 512.5 332.5 C 527.683 331.296 541.683 334.796 554.5 343.0" fill="transparent" stroke="#000000"/>
<path d="M 554.5 343.0 C 557.0 344.167 558.833 346.0 560.0 348.5" fill="transparent" stroke="#ff6622"/>
<path d="M 560.0 348.5 C 560.652 353.077 561.485 357.577 562.5 362.0" fill="transparent" stroke="#ffda21"/>
<path d="M 562.5 362.0 C 561.125 370.48 559.625 378.98 558.0 387.5" fill="transparent" stroke="#33dd00"/>
<path d="M 558.0 387.5 C 552.582 403.795 541.415 409.462 524.5 404.5" fill="transparent" stroke="#1133cc"/>
<path d="M 524.5 404.5 C 524.057 398.328 525.557 392.662 529.0 387.5" fill="transparent" stroke="#220066"/>
<path d="M 529.0 387.5 C 534.333 383.5 539.0 378.833 543.0 373.5" fill="transparent" stroke="#d10000"/>
<path d="M 543.0 373.5 C 543.667 370.5 543.667 367.5 543.0 364.5" fill="transparent" stroke="#ff6622"/>
<path d="M 543.0 364.5 C 540.872 361.37 538.372 358.537 535.5 356.0" fill="transparent" stroke="#ffda21"/>
<path d="M 535.5 356.0 C 524.581 353.897 513.581 352.231 502.5 351.0" fill="transparent" stroke="#33dd00"/>
<path d="M 502.5 351.0 C 499.99 350.624 497.657 349.79 495.5 348.5" fill="transparent" stroke="#1133cc"/>
<path d="M 495.5 348.5 C 497.372 344.588 499.372 340.755 501.5 337.0" fill="transparent" stroke="#220066"/>
<path d="M 501.5 337.0 C 505.053 334.879 508.72 333.379 512.5 332.5" fill="transparent" stroke="#d10000"/>
<path d="M 568.5 334.5 C 570.288 334.215 571.955 334.548 573.5 335.5" fill="transparent" stroke="#000000"/>
<path d="M 573.5 335.5 C 573.823 341.643 576.49 346.476 581.5 350.0" fill="transparent" stroke="#ff6622"/>
<path d="M 581.5 350.0 C 601.157 350.535 620.824 351.201 640.5 352.0" fill="transparent" stroke="#ffda21"/>
<path d="M 640.5 352.0 C 645.922 353.07 648.089 356.236 647.0 361.5" fill="transparent" stroke="#33dd00"/>
<path d="M 647.0 361.5 C 646.0 362.167 645.0 362.833 644.0 363.5" fill="transparent" stroke="#1133cc"/>
<path d="M 644.0 363.5 C 639.709 361.635 635.209 360.469 630.5 360.0" fill="transparent" stroke="#220066"/>
<path d="M 630.5 360.0 C 611.808 359.855 593.142 359.188 574.5 358.0" fill="transparent" stroke="#d10000"/>
<path d="M 574.5 358.0 C 568.615 355.704 565.615 351.37 565.5 345.0" fill="transparent" stroke="#ff6622"/>
<path d="M 565.5 345.0 C 566.435 341.497 567.435 337.997 568.5 334.5" fill="transparent" stroke="#ffda21"/>
<path d="M 477.5 367.5 C 489.843 368.798 502.176 370.465 514.5 372.5" fill="transparent" stroke="#000000"/>
<path d="M 514.5 372.5 C 514.124 380.188 513.457 387.854 512.5 395.5" fill="transparent" stroke="#ff6622"/>
<path d="M 512.5 395.5 C 508.061 393.298 503.394 391.798 498.5 391.0" fill="transparent" stroke="#ffda21"/>
<path d="M 498.5 391.0 C 481.157 390.746 463.823 390.246 446.5 389.5" fill="transparent" stroke="#33dd00"/>
<path d="M 446.5 389.5 C 444.5 389.167 442.5 388.833 440.5 388.5" fill="transparent" stroke="#1133cc"/>
<path d="M 440.5 388.5 C 442.142 379.676 447.142 373.843 455.5 371.0" fill="transparent" stroke="#220066"/>
<path d="M 455.5 371.0 C 462.947 369.657 470.28 368.491 477.5 367.5" fill="transparent" stroke="#d10000"/>
<path d="M 804.5 436.5 C 805.376 436.369 806.043 436.702 806.5 437.5" fill="transparent" stroke="#000000"/>
<path d="M 806.5 437.5 C 789.657 464.525 771.823 490.858 753.0 516.5" fill="transparent" stroke="#ff6622"/>
<path d="M 753.0 516.5 C 723.152 549.514 687.985 575.347 647.5 594.0" fill="transparent" stroke="#ffda21"/>
<path d="M 647.5 594.0 C 597.793 616.428 545.793 630.762 491.5 637.0" fill="transparent" stroke="#33dd00"/>
<path d="M 491.5 637.0 C 412.554 646.57 333.554 645.904 254.5 635.0" fill="transparent" stroke="#1133cc"/>
<path d="M 254.5 635.0 C 229.484 631.773 206.151 623.773 184.5 611.0" fill="transparent" stroke="#220066"/>
<path d="M 184.5 611.0 C 178.667 606.5 173.5 601.333 169.0 595.5" fill="transparent" stroke="#d10000"/>
<path d="M 169.0 595.5 C 154.84 573.19 146.34 548.856 143.5 522.5" fill="transparent" stroke="#ff6622"/>
<path d="M 143.5 522.5 C 144.5 522.5 145.5 522.5 146.5 522.5" fill="transparent" stroke="#ffda21"/>
<path d="M 146.5 522.5 C 148.347 529.194 151.514 535.194 156.0 540.5" fill="transparent" stroke="#33dd00"/>
<path d="M 156.0 540.5 C 166.666 554.979 178.166 568.813 190.5 582.0" fill="transparent" stroke="#1133cc"/>
<path d="M 190.5 582.0 C 200.257 591.714 211.924 598.048 225.5 601.0" fill="transparent" stroke="#220066"/>
<path d="M 225.5 601.0 C 237.243 603.416 249.077 605.249 261.0 606.5" fill="transparent" stroke="#d10000"/>
<path d="M 261.0 606.5 C 270.737 609.393 280.57 611.893 290.5 614.0" fill="transparent" stroke="#ff6622"/>
<path d="M 290.5 614.0 C 306.5 615.667 322.5 617.333 338.5 619.0" fill="transparent" stroke="#ffda21"/>
<path d="M 338.5 619.0 C 375.973 619.18 413.306 619.18 450.5 619.0" fill="transparent" stroke="#33dd00"/>
<path d="M 450.5 619.0 C 460.056 618.54 469.39 616.873 478.5 614.0" fill="transparent" stroke="#1133cc"/>
<path d="M 478.5 614.0 C 505.001 613.728 531.001 610.061 556.5 603.0" fill="transparent" stroke="#220066"/>
<path d="M 556.5 603.0 C 571.5 598.0 586.5 593.0 601.5 588.0" fill="transparent" stroke="#d10000"/>
<path d="M 601.5 588.0 C 620.27 579.449 638.603 570.115 656.5 560.0" fill="transparent" stroke="#ff6622"/>
<path d="M 656.5 560.0 C 675.167 546.667 693.833 533.333 712.5 520.0" fill="transparent" stroke="#ffda21"/>
<path d="M 712.5 520.0 C 718.196 513.438 723.529 506.605 728.5 499.5" fill="transparent" stroke="#33dd00"/>
<path d="M 728.5 499.5 C 738.499 492.905 747.665 485.238 756.0 476.5" fill="transparent" stroke="#1133cc"/>
<path d="M 756.0 476.5 C 761.625 468.085 767.125 459.585 772.5 451.0" fill="transparent" stroke="#220066"/>
<path d="M 772.5 451.0 C 782.643 444.758 793.309 439.924 804.5 436.5" fill="transparent" stroke="#d10000"/>
<path d="M 728.5 588.5 C 733.318 589.296 734.651 591.962 732.5 596.5" fill="transparent" stroke="#000000"/>
<path d="M 732.5 596.5 C 721.473 600.231 710.473 604.065 699.5 608.0" fill="transparent" stroke="#ff6622"/>
<path d="M 699.5 608.0 C 669.678 622.744 640.011 637.744 610.5 653.0" fill="transparent" stroke="#ffda21"/>
<path d="M 610.5 653.0 C 563.615 672.555 514.948 685.555 464.5 692.0" fill="transparent" stroke="#33dd00"/>
<path d="M 464.5 692.0 C 458.833 692.667 453.167 692.667 447.5 692.0" fill="transparent" stroke="#1133cc"/>
<path d="M 447.5 692.0 C 437.438 691.316 437.104 689.649 446.5 687.0" fill="transparent" stroke="#220066"/>
<path d="M 446.5 687.0 C 478.712 684.424 510.045 677.758 540.5 667.0" fill="transparent" stroke="#d10000"/>
<path d="M 540.5 667.0 C 558.06 660.553 575.393 653.553 592.5 646.0" fill="transparent" stroke="#ff6622"/>
<path d="M 592.5 646.0 C 620.26 632.453 648.26 619.453 676.5 607.0" fill="transparent" stroke="#ffda21"/>
<path d="M 676.5 607.0 C 693.612 599.909 710.946 593.742 728.5 588.5" fill="transparent" stroke="#33dd00"/>
<path d="M 782.5 589.5 C 788.742 591.48 789.075 594.313 783.5 598.0" fill="transparent" stroke="#000000"/>
<path d="M 783.5 598.0 C 718.887 636.77 650.22 666.437 577.5 687.0" fill="transparent" stroke="#ff6622"/>
<path d="M 577.5 687.0 C 484.541 714.938 389.541 729.438 292.5 730.5" fill="transparent" stroke="#ffda21"/>
<path d="M 292.5 730.5 C 264.679 730.799 237.012 728.966 209.5 725.0" fill="transparent" stroke="#33dd00"/>
<path d="M 209.5 725.0 C 191.134 721.659 174.134 714.992 158.5 705.0" fill="transparent" stroke="#1133cc"/>
<path d="M 158.5 705.0 C 150.852 699.687 145.018 692.854 141.0 684.5" fill="transparent" stroke="#220066"/>
<path d="M 141.0 684.5 C 140.502 681.518 140.335 678.518 140.5 675.5" fill="transparent" stroke="#d10000"/>
<path d="M 140.5 675.5 C 143.311 675.826 145.978 676.659 148.5 678.0" fill="transparent" stroke="#ff6622"/>
<path d="M 148.5 678.0 C 167.66 692.579 188.994 702.912 212.5 709.0" fill="transparent" stroke="#ffda21"/>
<path d="M 212.5 709.0 C 245.632 717.447 279.298 721.28 313.5 720.5" fill="transparent" stroke="#33dd00"/>
<path d="M 313.5 720.5 C 422.304 717.506 527.304 696.006 628.5 656.0" fill="transparent" stroke="#1133cc"/>
<path d="M 628.5 656.0 C 660.953 641.274 693.287 626.274 725.5 611.0" fill="transparent" stroke="#220066"/>
<path d="M 725.5 611.0 C 744.168 602.654 763.168 595.487 782.5 589.5" fill="transparent" stroke="#d10000"/>
<path d="M 190.5 642.5 C 197.263 648.088 203.93 653.921 210.5 660.0" fill="transparent" stroke="#000000"/>
<path d="M 210.5 660.0 C 226.722 670.635 244.388 677.968 263.5 682.0" fill="transparent" stroke="#ff6622"/>
<path d="M 263.5 682.0 C 280.395 685.318 297.395 687.985 314.5 690.0" fill="transparent" stroke="#ffda21"/>
<path d="M 314.5 690.0 C 316.663 690.245 318.33 691.245 319.5 693.0" fill="transparent" stroke="#33dd00"/>
<path d="M 319.5 693.0 C 310.788 694.766 301.954 695.933 293.0 696.5" fill="transparent" stroke="#1133cc"/>
<path d="M 293.0 696.5 C 280.909 695.424 268.742 694.591 256.5 694.0" fill="transparent" stroke="#220066"/>
<path d="M 256.5 694.0 C 239.263 692.254 223.263 686.921 208.5 678.0" fill="transparent" stroke="#d10000"/>
<path d="M 208.5 678.0 C 196.4 669.951 189.9 658.785 189.0 644.5" fill="transparent" stroke="#ff6622"/>
<path d="M 189.0 644.5 C 189.717 643.956 190.217 643.289 190.5 642.5" fill="transparent" stroke="#ffda21"/>
<path d="M 326.5 658.5 C 364.097 658.968 401.763 659.135 439.5 659.0" fill="transparent" stroke="#000000"/>
<path d="M 439.5 659.0 C 442.833 659.333 446.167 659.667 449.5 660.0" fill="transparent" stroke="#ff6622"/>
<path d="M 449.5 660.0 C 450.641 660.741 450.641 661.575 449.5 662.5" fill="transparent" stroke="#ffda21"/>
<path d="M 449.5 662.5 C 441.677 664.645 433.677 665.812 425.5 666.0" fill="transparent" stroke="#33dd00"/>
<path d="M 425.5 666.0 C 391.049 669.242 356.716 669.575 322.5 667.0" fill="transparent" stroke="#1133cc"/>
<path d="M 322.5 667.0 C 319.776 666.73 317.109 666.23 314.5 665.5" fill="transparent" stroke="#220066"/>
<path d="M 314.5 665.5 C 313.534 663.604 313.201 661.604 313.5 659.5" fill="transparent" stroke="#d10000"/>
<path d="M 313.5 659.5 C 318.032 659.818 322.366 659.485 326.5 658.5" fill="transparent" stroke="#ff6622"/>
</svg>
