<?xml version="1.0" encoding="UTF-8"?>
<!DOCTYPE svg PUBLIC "-//W3C//DTD SVG 1.1//EN" "http://www.w3.org/Graphics/SVG/1.1/DTD/svg11.dtd">
<svg xmlns="http://www.w3.org/2000/svg" version="1.1" width="1026px" height="835px" style="shape-rendering:geometricPrecision; text-rendering:geometricPrecision; image-rendering:optimizeQuality; fill-rule:evenodd; clip-rule:evenodd" xmlns:xlink="http://www.w3.org/1999/xlink">
<g><path style="opacity:0.981" fill="#000000" d="M 540.5,42.5 C 579.501,42.3333 618.501,42.5 657.5,43C 682.544,44.0418 707.544,45.7085 732.5,48C 768.061,51.3584 796.894,66.8584 819,94.5C 824.914,102.66 830.581,110.993 836,119.5C 850.195,147.224 863.862,175.224 877,203.5C 880.635,209.965 884.468,216.298 888.5,222.5C 879.52,223.05 870.52,223.217 861.5,223C 857.898,224.273 856.732,226.773 858,230.5C 872.102,233.119 886.268,235.619 900.5,238C 928.038,246.861 949.871,263.361 966,287.5C 989.866,335.133 982.699,377.3 944.5,414C 930.83,425.334 916.33,435.501 901,444.5C 888.972,469.246 879.306,494.912 872,521.5C 866.675,534.479 859.342,546.145 850,556.5C 821.402,586.776 788.569,611.276 751.5,630C 700.621,654.606 649.621,678.939 598.5,703C 576.654,716.426 554.32,729.093 531.5,741C 525.459,743.76 519.126,745.427 512.5,746C 496.472,746.154 480.472,746.821 464.5,748C 441.197,754.323 418.197,761.656 395.5,770C 335.167,786.367 273.834,792.033 211.5,787C 186.405,784.726 162.405,778.393 139.5,768C 102.229,746.637 87.3955,714.471 95,671.5C 101.13,628.997 105.797,586.33 109,543.5C 111.203,511.138 110.869,478.805 108,446.5C 105.075,418.658 94.0746,394.658 75,374.5C 59.7144,352.079 54.3811,327.412 59,300.5C 62.3938,287.709 68.3938,276.376 77,266.5C 89.701,253.467 102.034,240.134 114,226.5C 120.61,217.28 125.61,207.28 129,196.5C 130,185.5 131,174.5 132,163.5C 132.884,155.835 135.884,149.169 141,143.5C 163.69,119.562 190.523,101.729 221.5,90C 233.967,85.3829 246.634,81.3829 259.5,78C 272.091,76.1047 284.757,75.2714 297.5,75.5C 324.53,76.4269 351.53,77.9269 378.5,80C 402.245,80.8845 425.912,79.8845 449.5,77C 473.785,73.0081 498.118,69.3414 522.5,66C 582.334,57.4997 638.001,68.8331 689.5,100C 717.412,118.541 745.578,136.707 774,154.5C 778.721,151.618 779.721,147.618 777,142.5C 747.187,115.703 714.354,93.2032 678.5,75C 641.54,57.9413 602.706,49.4413 562,49.5C 541.225,51.3539 520.392,53.1872 499.5,55C 472.206,58.6617 444.873,61.9951 417.5,65C 395.491,66.8866 373.491,66.8866 351.5,65C 381.218,61.4102 410.885,57.4102 440.5,53C 474.051,50.1365 507.384,46.6365 540.5,42.5 Z M 530.5,82.5 C 608.642,78.1628 678.308,99.9962 739.5,148C 747.539,154.372 754.539,161.705 760.5,170C 759.663,171.011 759.33,172.178 759.5,173.5C 756.375,173.135 753.375,172.302 750.5,171C 697.47,128.641 637.137,102.975 569.5,94C 549.165,92.0185 528.832,92.0185 508.5,94C 482.775,97.6117 457.108,101.612 431.5,106C 400.605,110.393 369.605,111.393 338.5,109C 315.216,105.983 291.883,103.483 268.5,101.5C 260.759,101.63 253.092,102.463 245.5,104C 238.562,106.48 231.562,108.647 224.5,110.5C 223.424,104.488 225.758,99.9879 231.5,97C 235.281,94.7754 239.281,93.1087 243.5,92C 250.735,91.3016 257.902,90.4682 265,89.5C 289.245,91.622 313.411,94.7887 337.5,99C 359.857,100.989 382.191,100.655 404.5,98C 436.833,93.6668 469.166,89.3334 501.5,85C 511.322,84.1812 520.989,83.3478 530.5,82.5 Z M 546.5,114.5 C 578.454,113.559 610.121,116.059 641.5,122C 665.796,127.151 687.796,137.151 707.5,152C 715.343,158.502 721.677,166.168 726.5,175C 725.663,176.011 725.33,177.178 725.5,178.5C 723.146,178.162 720.813,177.662 718.5,177C 697.802,156.309 673.136,142.309 644.5,135C 628.403,130.714 612.07,127.714 595.5,126C 568.147,124.407 540.814,122.74 513.5,121C 512.359,120.259 512.359,119.425 513.5,118.5C 514.729,117.719 516.062,117.219 517.5,117C 527.322,116.181 536.989,115.348 546.5,114.5 Z M 300.5,124.5 C 320.274,123.981 339.94,125.148 359.5,128C 366.273,129.146 372.606,131.48 378.5,135C 387.486,142.663 386.153,145.996 374.5,145C 339.852,135.806 304.852,134.14 269.5,140C 244.927,145.346 227.093,159.179 216,181.5C 212.326,175.59 211.992,169.256 215,162.5C 218.725,154.108 224.559,147.608 232.5,143C 253.842,131.5 276.508,125.334 300.5,124.5 Z M 526.5,126.5 C 528.487,127.164 530.154,128.331 531.5,130C 524.578,136.918 518.411,144.418 513,152.5C 508.821,161.39 506.154,170.723 505,180.5C 503.126,182.776 501.459,182.443 500,179.5C 496.345,165.086 498.345,151.419 506,138.5C 511.773,132.535 518.607,128.535 526.5,126.5 Z M 353.5,157.5 C 364.533,154.879 371.7,158.879 375,169.5C 378.435,184.904 378.268,200.238 374.5,215.5C 372.799,215.966 371.299,215.966 370,215.5C 368.261,204.236 366.928,192.902 366,181.5C 364.216,173.717 360.049,167.55 353.5,163C 352.851,161.31 352.851,159.477 353.5,157.5 Z M 603.5,182.5 C 638.58,179.147 671.246,186.314 701.5,204C 716.135,214.57 726.135,228.57 731.5,246C 726.676,252.082 720.343,255.582 712.5,256.5C 711.216,243.099 705.55,231.932 695.5,223C 689.258,221.63 682.925,221.13 676.5,221.5C 678.182,227.822 681.682,233.155 687,237.5C 690.419,242.668 693.585,248.002 696.5,253.5C 696,253.833 695.5,254.167 695,254.5C 657.396,243.506 619.896,244.006 582.5,256C 570.046,259.814 557.879,264.314 546,269.5C 539.404,265.997 534.904,260.663 532.5,253.5C 536.192,252.436 539.858,251.27 543.5,250C 552.167,245.333 560.833,240.667 569.5,236C 576.996,233.584 584.662,231.917 592.5,231C 593.624,230.161 594.291,228.994 594.5,227.5C 593.701,220.669 592.201,214.003 590,207.5C 587.749,203.874 584.582,202.707 580.5,204C 567.728,209.258 554.728,213.924 541.5,218C 532.57,221.923 525.07,227.756 519,235.5C 509.43,251.197 512.263,264.197 527.5,274.5C 528.386,275.325 528.719,276.325 528.5,277.5C 524.661,279.167 520.661,279.667 516.5,279C 504.034,274.2 495.201,265.7 490,253.5C 487.242,243.193 489.242,233.86 496,225.5C 508.745,212.869 523.579,203.369 540.5,197C 560.923,189.02 581.923,184.186 603.5,182.5 Z M 273.5,206.5 C 312.958,204.378 348.291,215.212 379.5,239C 381.126,241.628 383.126,243.961 385.5,246C 392.476,245.395 399.476,244.562 406.5,243.5C 419.625,244.244 422.291,249.744 414.5,260C 405.347,264.329 396.18,268.495 387,272.5C 386.153,289.845 385.153,307.179 384,324.5C 373.252,331.791 362.419,338.958 351.5,346C 347.667,349.833 343.833,353.667 340,357.5C 339.238,363 340.572,368 344,372.5C 353.167,387 365,398.833 379.5,408C 382.03,409.422 384.697,409.755 387.5,409C 393.657,405.171 400.157,402.005 407,399.5C 409.577,400.271 412.077,401.271 414.5,402.5C 411.861,409.112 408.694,415.446 405,421.5C 396.779,428.744 387.613,430.578 377.5,427C 369.507,423.675 362.174,419.341 355.5,414C 343.958,402.792 332.791,391.292 322,379.5C 318.569,381.261 315.403,383.428 312.5,386C 309.269,387.466 305.935,388.633 302.5,389.5C 302.256,384.372 300.756,379.705 298,375.5C 297.196,374.196 296.029,373.529 294.5,373.5C 291.803,374.232 289.136,375.066 286.5,376C 278.525,381.136 270.192,385.636 261.5,389.5C 260.792,387.108 261.458,384.941 263.5,383C 274.437,376.393 285.104,369.393 295.5,362C 318.05,344.449 340.884,327.282 364,310.5C 364.667,298.167 364.667,285.833 364,273.5C 360.764,270.129 356.931,267.629 352.5,266C 345.337,263.376 338.004,261.376 330.5,260C 305.604,256.453 280.604,253.953 255.5,252.5C 255.5,251.5 255.5,250.5 255.5,249.5C 267.089,243.543 279.089,238.377 291.5,234C 293.5,232.333 295.5,230.667 297.5,229C 278.947,223.914 261.28,226.247 244.5,236C 240.633,240.202 236.467,244.035 232,247.5C 228.435,246.199 224.935,244.699 221.5,243C 220.833,242 220.167,241 219.5,240C 222.42,231.16 227.753,224.16 235.5,219C 247.187,211.493 259.854,207.326 273.5,206.5 Z M 743.5,227.5 C 752.391,228.245 761.058,230.078 769.5,233C 775.196,233.17 780.862,233.67 786.5,234.5C 784.905,237.68 783.905,241.013 783.5,244.5C 778.968,245.763 774.635,247.597 770.5,250C 766.173,253.499 761.506,256.499 756.5,259C 753.833,259.667 751.167,259.667 748.5,259C 746.783,257.441 744.783,256.608 742.5,256.5C 744.588,251.882 747.754,247.882 752,244.5C 754.715,237.317 752.215,232.651 744.5,230.5C 743.614,229.675 743.281,228.675 743.5,227.5 Z M 158.5,235.5 C 171.169,235.767 183.836,236.1 196.5,236.5C 196.5,237.5 196.5,238.5 196.5,239.5C 169.358,237.496 143.358,241.996 118.5,253C 75.3151,275.503 62.1484,310.003 79,356.5C 85.3667,370.935 96.2001,380.102 111.5,384C 119.328,386.663 124.662,391.829 127.5,399.5C 111.016,398.007 97.1826,391.007 86,378.5C 66.4911,353.464 60.4911,325.464 68,294.5C 78.2051,266.633 97.7051,248.8 126.5,241C 137.189,238.453 147.856,236.62 158.5,235.5 Z M 848.5,238.5 C 861.438,239.36 874.438,240.193 887.5,241C 904.029,243.766 919.029,250.099 932.5,260C 938.081,267.828 943.415,275.828 948.5,284C 947.667,285.5 946.5,286.667 945,287.5C 928.035,264.244 905.202,250.411 876.5,246C 862.789,245.243 849.122,244.076 835.5,242.5C 833.431,242.176 833.098,241.342 834.5,240C 839.351,239.826 844.018,239.326 848.5,238.5 Z M 814.5,256.5 C 844.268,254.105 870.935,261.938 894.5,280C 925.103,310.985 929.603,345.485 908,383.5C 904.39,390.272 899.557,395.938 893.5,400.5C 890.072,390.933 890.238,381.266 894,371.5C 910.753,334.793 902.586,305.293 869.5,283C 853.576,275.835 836.909,273.502 819.5,276C 816.363,276.601 813.363,277.601 810.5,279C 791.052,295.22 768.719,305.22 743.5,309C 716.062,314.798 688.729,313.798 661.5,306C 637.941,299.276 624.608,283.776 621.5,259.5C 621.833,258.833 622.167,258.167 622.5,257.5C 637.095,262.793 650.095,270.626 661.5,281C 683.28,295.956 706.613,298.623 731.5,289C 749.71,279.728 768.044,270.728 786.5,262C 795.829,259.394 805.162,257.56 814.5,256.5 Z M 130.5,261.5 C 135.8,262.926 136.634,265.592 133,269.5C 126,275.833 119,282.167 112,288.5C 103.392,297.396 99.5583,308.062 100.5,320.5C 100.282,327.968 101.116,335.301 103,342.5C 108.198,348.033 113.698,353.2 119.5,358C 121.818,359.993 124.484,361.159 127.5,361.5C 128.052,363.331 128.052,364.997 127.5,366.5C 110.136,371.232 98.9698,364.899 94,347.5C 93.1011,340.027 92.6011,332.527 92.5,325C 93.2456,309.799 94.4123,294.632 96,279.5C 107.325,273.088 118.825,267.088 130.5,261.5 Z M 156.5,282.5 C 188.599,281.922 217.265,291.422 242.5,311C 245.303,311.755 247.97,311.422 250.5,310C 257.892,302.787 266.558,299.287 276.5,299.5C 278.182,308.086 276.516,316.086 271.5,323.5C 259.728,330.11 247.062,333.276 233.5,333C 226.833,333.667 220.167,333.667 213.5,333C 212.234,332.691 211.067,332.191 210,331.5C 204.048,307.264 188.881,298.431 164.5,305C 149.842,307.565 135.175,310.065 120.5,312.5C 119.833,312.167 119.167,311.833 118.5,311.5C 121.372,304.247 125.372,297.747 130.5,292C 138.584,286.771 147.251,283.605 156.5,282.5 Z M 815.5,292.5 C 819.23,292.854 822.563,294.187 825.5,296.5C 829.837,306.672 829.671,317.006 825,327.5C 821.941,334.559 817.108,340.059 810.5,344C 800.227,346.536 790.227,349.869 780.5,354C 763.678,365.746 745.678,375.413 726.5,383C 721.672,386.581 716.672,389.915 711.5,393C 695.481,396.537 679.481,400.204 663.5,404C 634.242,414.086 604.575,422.753 574.5,430C 568.051,432.391 561.718,435.058 555.5,438C 526.136,444.206 496.803,450.539 467.5,457C 452.577,458.998 437.577,459.998 422.5,460C 406.072,463.011 389.572,464.844 373,465.5C 347.483,464.115 321.983,461.949 296.5,459C 286.227,456.464 276.227,453.131 266.5,449C 263.24,448.216 260.073,448.383 257,449.5C 237.36,441.68 218.693,432.013 201,420.5C 195.662,409.842 194.496,398.842 197.5,387.5C 209.75,400.58 224.083,410.747 240.5,418C 295.735,440.073 353.069,448.74 412.5,444C 476.393,439.527 538.393,426.194 598.5,404C 649.399,385.05 699.732,364.716 749.5,343C 769.102,335.278 788.602,327.444 808,319.5C 810.041,310.33 812.541,301.33 815.5,292.5 Z M 949.5,311.5 C 951.229,312.117 952.729,313.117 954,314.5C 955.356,320.666 956.522,326.833 957.5,333C 954.701,356.627 950.868,380.127 946,403.5C 934.077,414.411 920.41,422.411 905,427.5C 903.644,426.62 902.144,426.286 900.5,426.5C 899.629,423.938 899.629,421.272 900.5,418.5C 911.815,414.913 920.982,408.246 928,398.5C 936.488,385.042 941.821,370.375 944,354.5C 945.475,340.536 946.309,326.536 946.5,312.5C 947.791,312.737 948.791,312.404 949.5,311.5 Z M 173.5,322.5 C 176.93,322.107 180.096,322.773 183,324.5C 186.104,329.036 187.77,334.036 188,339.5C 188.667,346.833 188.667,354.167 188,361.5C 183.899,374.907 180.899,388.573 179,402.5C 177.661,423.961 178.661,445.294 182,466.5C 184.346,471.513 188.013,475.179 193,477.5C 193.5,477.167 194,476.833 194.5,476.5C 198.064,463.345 200.731,450.012 202.5,436.5C 208.13,437.482 213.13,439.815 217.5,443.5C 217.698,457.717 219.531,471.717 223,485.5C 223.519,486.516 224.353,487.182 225.5,487.5C 231.973,488.428 238.306,489.928 244.5,492C 246.5,492.667 248.5,492.667 250.5,492C 251.622,488.582 251.289,485.249 249.5,482C 251.617,474.592 254.45,467.426 258,460.5C 259.333,459.833 260.667,459.167 262,458.5C 267.544,460.071 273.044,461.737 278.5,463.5C 277.182,472.273 274.848,480.773 271.5,489C 271.613,490.28 272.28,491.113 273.5,491.5C 284.246,494.883 295.246,497.049 306.5,498C 320.496,498.5 334.496,498.667 348.5,498.5C 349.24,490.188 349.573,481.854 349.5,473.5C 357.86,473.169 366.193,473.502 374.5,474.5C 371.575,480.608 369.242,486.941 367.5,493.5C 367.59,495.425 368.59,496.592 370.5,497C 393.781,498.459 417.114,498.959 440.5,498.5C 440.5,488.833 440.5,479.167 440.5,469.5C 446.833,469.5 453.167,469.5 459.5,469.5C 459.5,479.167 459.5,488.833 459.5,498.5C 473.504,498.667 487.504,498.5 501.5,498C 524.134,494.632 546.3,489.466 568,482.5C 567.809,470.686 566.309,459.019 563.5,447.5C 570.355,445.105 577.355,443.105 584.5,441.5C 585.53,451.294 587.364,460.961 590,470.5C 590.725,471.059 591.558,471.392 592.5,471.5C 610.973,465.381 629.64,459.881 648.5,455C 666.857,450.575 682.357,441.408 695,427.5C 699.226,421.716 702.392,415.382 704.5,408.5C 711.885,405.974 718.885,402.641 725.5,398.5C 726.498,406.472 726.831,414.472 726.5,422.5C 748.468,420.01 769.135,413.51 788.5,403C 801.23,393.601 811.063,381.768 818,367.5C 827.175,357.991 836.008,348.157 844.5,338C 847.167,337.333 849.833,337.333 852.5,338C 862.804,343.06 872.304,349.226 881,356.5C 882.833,360.167 884.667,363.833 886.5,367.5C 882.833,367.833 879.167,368.167 875.5,368.5C 865.795,367.722 856.128,366.888 846.5,366C 834.419,376.489 831.086,389.322 836.5,404.5C 811.142,418.178 784.808,429.678 757.5,439C 744.949,444.554 734.449,452.721 726,463.5C 724.725,465.717 723.725,468.051 723,470.5C 723.742,485.351 717.909,496.685 705.5,504.5C 702.585,494.684 700.418,484.684 699,474.5C 698.804,472.714 697.971,471.381 696.5,470.5C 666.636,487.733 634.97,500.567 601.5,509C 599.202,520.952 600.702,532.452 606,543.5C 609.707,550.414 613.54,557.248 617.5,564C 611.145,568.848 604.145,572.681 596.5,575.5C 592.89,565.611 588.723,555.944 584,546.5C 580.567,537.1 578.233,527.433 577,517.5C 576.481,516.484 575.647,515.818 574.5,515.5C 544.757,530.103 513.423,539.437 480.5,543.5C 479.359,562.205 480.026,580.871 482.5,599.5C 475.278,600.127 468.278,601.794 461.5,604.5C 460.066,586.857 459.066,569.191 458.5,551.5C 445.232,553.987 431.898,556.153 418.5,558C 405.863,559.227 393.197,559.727 380.5,559.5C 381.488,575.775 384.155,591.775 388.5,607.5C 381.916,607.733 375.249,607.733 368.5,607.5C 366.829,585.009 355.495,569.843 334.5,562C 327.5,561.333 320.5,561.333 313.5,562C 310.766,562.21 308.266,563.044 306,564.5C 305.389,568.682 306.056,572.682 308,576.5C 312.5,586.167 317,595.833 321.5,605.5C 320.667,605.833 319.833,606.167 319,606.5C 311.147,605.598 303.314,604.598 295.5,603.5C 292.961,596.75 290.128,590.083 287,583.5C 285.812,578.049 284.312,572.716 282.5,567.5C 275.066,565.3 267.733,562.8 260.5,560C 257.183,559.502 253.85,559.335 250.5,559.5C 250.351,562.607 250.851,565.607 252,568.5C 258.115,576.391 262.948,585.058 266.5,594.5C 266.167,594.833 265.833,595.167 265.5,595.5C 256.34,593.116 247.007,591.783 237.5,591.5C 235.06,573.763 226.06,560.763 210.5,552.5C 210.335,555.85 210.502,559.183 211,562.5C 214.191,568.906 216.691,575.573 218.5,582.5C 211.282,582.22 205.116,579.22 200,573.5C 192.667,564.167 185.333,554.833 178,545.5C 170.584,532.999 162.917,520.665 155,508.5C 147.258,496.273 142.924,482.94 142,468.5C 138.216,425.433 147.216,385.1 169,347.5C 169.716,338.953 171.216,330.619 173.5,322.5 Z M 512.5,332.5 C 527.683,331.296 541.683,334.796 554.5,343C 557,344.167 558.833,346 560,348.5C 560.652,353.077 561.485,357.577 562.5,362C 561.125,370.48 559.625,378.98 558,387.5C 552.582,403.795 541.415,409.462 524.5,404.5C 524.057,398.328 525.557,392.662 529,387.5C 534.333,383.5 539,378.833 543,373.5C 543.667,370.5 543.667,367.5 543,364.5C 540.872,361.37 538.372,358.537 535.5,356C 524.581,353.897 513.581,352.231 502.5,351C 499.99,350.624 497.657,349.79 495.5,348.5C 497.372,344.588 499.372,340.755 501.5,337C 505.053,334.879 508.72,333.379 512.5,332.5 Z M 568.5,334.5 C 570.288,334.215 571.955,334.548 573.5,335.5C 573.823,341.643 576.49,346.476 581.5,350C 601.157,350.535 620.824,351.201 640.5,352C 645.922,353.07 648.089,356.236 647,361.5C 646,362.167 645,362.833 644,363.5C 639.709,361.635 635.209,360.469 630.5,360C 611.808,359.855 593.142,359.188 574.5,358C 568.615,355.704 565.615,351.37 565.5,345C 566.435,341.497 567.435,337.997 568.5,334.5 Z M 477.5,367.5 C 489.843,368.798 502.176,370.465 514.5,372.5C 514.124,380.188 513.457,387.854 512.5,395.5C 508.061,393.298 503.394,391.798 498.5,391C 481.157,390.746 463.823,390.246 446.5,389.5C 444.5,389.167 442.5,388.833 440.5,388.5C 442.142,379.676 447.142,373.843 455.5,371C 462.947,369.657 470.28,368.491 477.5,367.5 Z M 804.5,436.5 C 805.376,436.369 806.043,436.702 806.5,437.5C 789.657,464.525 771.823,490.858 753,516.5C 723.152,549.514 687.985,575.347 647.5,594C 597.793,616.428 545.793,630.762 491.5,637C 412.554,646.57 333.554,645.904 254.5,635C 229.484,631.773 206.151,623.773 184.5,611C 178.667,606.5 173.5,601.333 169,595.5C 154.84,573.19 146.34,548.856 143.5,522.5C 144.5,522.5 145.5,522.5 146.5,522.5C 148.347,529.194 151.514,535.194 156,540.5C 166.666,554.979 178.166,568.813 190.5,582C 200.257,591.714 211.924,598.048 225.5,601C 237.243,603.416 249.077,605.249 261,606.5C 270.737,609.393 280.57,611.893 290.5,614C 306.5,615.667 322.5,617.333 338.5,619C 375.973,619.18 413.306,619.18 450.5,619C 460.056,618.54 469.39,616.873 478.5,614C 505.001,613.728 531.001,610.061 556.5,603C 571.5,598 586.5,593 601.5,588C 620.27,579.449 638.603,570.115 656.5,560C 675.167,546.667 693.833,533.333 712.5,520C 718.196,513.438 723.529,506.605 728.5,499.5C 738.499,492.905 747.665,485.238 756,476.5C 761.625,468.085 767.125,459.585 772.5,451C 782.643,444.758 793.309,439.924 804.5,436.5 Z M 728.5,588.5 C 733.318,589.296 734.651,591.962 732.5,596.5C 721.473,600.231 710.473,604.065 699.5,608C 669.678,622.744 640.011,637.744 610.5,653C 563.615,672.555 514.948,685.555 464.5,692C 458.833,692.667 453.167,692.667 447.5,692C 437.438,691.316 437.104,689.649 446.5,687C 478.712,684.424 510.045,677.758 540.5,667C 558.06,660.553 575.393,653.553 592.5,646C 620.26,632.453 648.26,619.453 676.5,607C 693.612,599.909 710.946,593.742 728.5,588.5 Z M 782.5,589.5 C 788.742,591.48 789.075,594.313 783.5,598C 718.887,636.77 650.22,666.437 577.5,687C 484.541,714.938 389.541,729.438 292.5,730.5C 264.679,730.799 237.012,728.966 209.5,725C 191.134,721.659 174.134,714.992 158.5,705C 150.852,699.687 145.018,692.854 141,684.5C 140.502,681.518 140.335,678.518 140.5,675.5C 143.311,675.826 145.978,676.659 148.5,678C 167.66,692.579 188.994,702.912 212.5,709C 245.632,717.447 279.298,721.28 313.5,720.5C 422.304,717.506 527.304,696.006 628.5,656C 660.953,641.274 693.287,626.274 725.5,611C 744.168,602.654 763.168,595.487 782.5,589.5 Z M 190.5,642.5 C 197.263,648.088 203.93,653.921 210.5,660C 226.722,670.635 244.388,677.968 263.5,682C 280.395,685.318 297.395,687.985 314.5,690C 316.663,690.245 318.33,691.245 319.5,693C 310.788,694.766 301.954,695.933 293,696.5C 280.909,695.424 268.742,694.591 256.5,694C 239.263,692.254 223.263,686.921 208.5,678C 196.4,669.951 189.9,658.785 189,644.5C 189.717,643.956 190.217,643.289 190.5,642.5 Z M 326.5,658.5 C 364.097,658.968 401.763,659.135 439.5,659C 442.833,659.333 446.167,659.667 449.5,660C 450.641,660.741 450.641,661.575 449.5,662.5C 441.677,664.645 433.677,665.812 425.5,666C 391.049,669.242 356.716,669.575 322.5,667C 319.776,666.73 317.109,666.23 314.5,665.5C 313.534,663.604 313.201,661.604 313.5,659.5C 318.032,659.818 322.366,659.485 326.5,658.5 Z"/></g>
</svg>
